#!OML:ASF Y:\EmotionMaleHayes\Project 1\Capture day 1\Session 1\Male1.ASF
:FULLY-SPECIFIED
:DEGREES
1552
root 39.8713 16.8551 -18.2122 338.066 245.711 377.474
lowerback 2.2814 5.53136 7.40256
upperback 1.66323 7.42839 1.58602
thorax 1.17725 3.75866 -2.50721
lowerneck -28.724 6.83014 8.80593
upperneck 22.5778 8.6347 -9.68895
head 13.1842 3.18595 -3.54936
rclavicle 2.2736e-014 -1.82882e-014
rhumerus 44.3562 16.8843 -40.5859
rradius 40.168
rwrist -3.19898
rhand -4.01186 -30.8707
rfingers 7.12502
rthumb 21.7426 -59.6696
lclavicle 2.2736e-014 -1.82882e-014
lhumerus 32.7815 -8.24415 21.3276
lradius 41.0879
lwrist 6.41299
lhand -18.4445 -26.1045
lfingers 7.12502
lthumb 7.84132 3.73008
rfemur 27.8265 -2.48405 18.7282
rtibia 16.0973
rfoot -12.1981 -14.2403
rtoes -12.5625
lfemur -8.00523 17.2258 -13.084
ltibia 18.3204
lfoot -13.6237 19.3355
ltoes 30.6212
1553
root 39.7309 16.8626 -18.2256 341.058 246.304 374.063
lowerback 1.78475 5.5844 5.90029
upperback 1.91186 7.44888 1.09419
thorax 1.58282 3.77949 -2.13067
lowerneck -29.1316 7.04094 8.87172
upperneck 22.1932 8.84566 -9.69786
head 13.1312 3.27805 -3.50598
rclavicle 2.43604e-014 3.97569e-016
rhumerus 44.6161 16.6031 -41.1416
rradius 39.9405
rwrist -2.59149
rhand -3.68477 -30.7487
rfingers 7.12502
rthumb 22.0566 -59.5109
lclavicle 2.43604e-014 3.97569e-016
lhumerus 32.7718 -7.84894 21.5573
lradius 41.2813
lwrist 6.36101
lhand -19.3205 -26.5076
lfingers 7.12502
lthumb 6.99582 3.35681
rfemur 27.7781 -2.05735 16.7879
rtibia 17.1402
rfoot -11.3131 -14.2511
rtoes -9.15615
lfemur -7.79176 16.2002 -15.099
ltibia 18.9743
lfoot -14.7265 19.5529
ltoes 30.7273
1554
root 39.5942 16.8765 -18.2423 343.04 246.829 371.676
lowerback 1.86114 5.6307 4.68088
upperback 1.8015 7.52183 0.818514
thorax 1.30847 3.79994 -1.77115
lowerneck -29.1707 6.79489 8.76755
upperneck 22.4433 8.6628 -10.0545
head 13.2395 3.13041 -3.67763
rclavicle 1.58407e-015 -1.23246e-014
rhumerus 44.3998 16.6241 -41.8708
rradius 39.6487
rwrist -2.03571
rhand -3.68018 -30.7592
rfingers 7.12502
rthumb 22.061 -59.5209
lclavicle 1.58407e-015 -1.23246e-014
lhumerus 32.5969 -7.9569 22.0314
lradius 41.5674
lwrist 6.60521
lhand -19.4783 -26.5322
lfingers 7.12502
lthumb 6.84343 3.3372
rfemur 27.7781 -1.83507 15.3222
rtibia 18.2009
rfoot -10.2981 -14.1033
rtoes -4.77916
lfemur -7.26221 15.472 -16.5078
ltibia 19.2255
lfoot -15.0626 19.6711
ltoes 28.8694
1555
root 39.4573 16.896 -18.2581 343.406 247.055 370.976
lowerback 1.75344 5.71512 4.40917
upperback 1.88646 7.62689 0.648106
thorax 1.45041 3.85546 -1.7782
lowerneck -29.4506 6.84834 8.49251
upperneck 22.1562 8.71763 -9.72902
head 13.1454 3.17369 -3.48011
rclavicle -5.29885e-015 4.77083e-015
rhumerus 44.2358 17.0162 -41.3193
rradius 39.977
rwrist -3.06498
rhand -4.47189 -31.1826
rfingers 7.12502
rthumb 21.3008 -60.032
lclavicle -5.29885e-015 4.77083e-015
lhumerus 32.7494 -7.88353 22.3704
lradius 41.7536
lwrist 6.96305
lhand -19.4236 -26.4814
lfingers 7.12502
lthumb 6.89628 3.38624
rfemur 27.6974 -1.51991 14.8416
rtibia 19.3321
rfoot -9.19434 -14.2371
rtoes -1.97396
lfemur -6.33637 14.9035 -16.9568
ltibia 18.9319
lfoot -14.9319 19.8313
ltoes 27.1771
1556
root 39.3197 16.9212 -18.2704 342.842 247.038 371.362
lowerback 2.0608 5.90613 4.63275
upperback 1.55953 7.91528 0.574484
thorax 1.00182 3.99137 -2.02636
lowerneck -29.3586 6.53285 8.21587
upperneck 22.3948 8.39522 -9.65768
head 13.1728 3.01638 -3.48072
rclavicle -1.69091e-014 1.90833e-014
rhumerus 43.3705 17.919 -39.9548
rradius 40.754
rwrist -4.26829
rhand -4.26259 -31.222
rfingers 7.12502
rthumb 21.5018 -60.0486
lclavicle -1.69091e-014 1.90833e-014
lhumerus 32.8901 -8.54092 22.6941
lradius 41.987
lwrist 7.33726
lhand -19.5398 -26.5085
lfingers 7.12502
lthumb 6.78404 3.36282
rfemur 27.3936 -1.03417 15.0767
rtibia 20.6075
rfoot -8.08959 -14.5501
rtoes 0.060049
lfemur -5.42644 14.299 -16.8558
ltibia 18.5832
lfoot -14.6961 20.4735
ltoes 11.8057
